<?xml version="1.0" encoding="utf-8"?>
<!-- Generator: Adobe Illustrator 27.2.0, SVG Export Plug-In . SVG Version: 6.00 Build 0)  -->
<svg version="1.1" id="Layer_1" xmlns="http://www.w3.org/2000/svg" xmlns:xlink="http://www.w3.org/1999/xlink" x="0px" y="0px"
	 viewBox="0 0 148 133" style="enable-background:new 0 0 148 133;" xml:space="preserve">
<style type="text/css">
	.st0{fill-rule:evenodd;clip-rule:evenodd;fill:#FFFFFF;}
</style>
<g>
	<path class="st0" d="M76.9,124.3c0,0.5,0.6,0.5,0.7,0c0.8-4,2.1-6.7,4-9.2l-4.4,0c-0.2,0-0.4,0.2-0.4,0.4V124.3L76.9,124.3z
		 M108.5,68.8c0.1,5.8-1.6,10.7-12.2,21.3L88,98.4c-3.8,3.8-7.2,7.3-9.2,10.7h8.2l1-1l12-12c10-10,11.3-20.5,9.2-27.4
		C109,68.2,108.5,68.2,108.5,68.8L108.5,68.8z M98,104.1l-10,10c-6,6.1-11.1,11.3-11.1,17l0,1.6c0,0.4,0.5,0.5,0.7,0
		c1.9-5.1,8.1-10.6,19.5-8.6c0,0,49.8,8.6,50.3,8.7c0.5,0,0.7-0.4,0.4-0.8c-0.2-0.2-23.2-23.3-23.2-23.3L98,104.1z M62,115.1
		c-0.2,0-0.4-0.2-0.4-0.4v-5.2c0-0.2,0.2-0.4,0.4-0.4l8.7,0c0.2,0,0.4-0.2,0.4-0.4c0-4.6-3.5-7.8-17.5-5.4l-30.2,5.2
		c0,0-23,23-23.2,23.3c-0.3,0.4-0.1,0.9,0.4,0.8c0.4,0,50.3-8.7,50.3-8.7c11.4-1.9,17.7,3.5,19.5,8.6c0.2,0.4,0.7,0.4,0.7,0l0-17.2
		c0-0.2-0.2-0.4-0.4-0.4L62,115.1L62,115.1z M48,42.9c-10,10-11.3,20.5-9.2,27.4c0.2,0.6,0.7,0.6,0.7,0c-0.1-5.8,1.6-10.7,12.2-21.3
		l22.7-22.7c6-6.1,11.1-11.3,11.1-17V0.4c0-0.5-0.6-0.5-0.7,0c-1.5,7.3-4.4,10.1-10.4,16.1L48,42.9L48,42.9z M85.5,16
		c0-0.5-0.6-0.5-0.7,0c-1.5,7.3-4.4,10.2-10.4,16.2L50.6,56C39,67.6,37,78.8,42.9,86c0.4,0.5,0.8,0.2,0.6-0.4
		c-3.9-8.8,5.4-18.2,9.9-22.6l21.1-21.1c6-6.1,11.1-11.3,11.1-17V16L85.5,16z M51.2,71C39.6,82.6,45,93.8,51.7,96.8
		c0.6,0.3,0.8-0.2,0.4-0.6c-5.4-4.7-3.8-12.6,3-19.4l19.2-19.3c6-6.1,11.1-11.3,11.1-17v-8.9c0-0.5-0.6-0.5-0.7,0
		c-1.5,7.3-4.4,10.1-10.4,16.1L51.2,71z M76.9,108.7c0,0.5,0.6,0.5,0.7,0c1.5-7.3,4.4-10.2,10.4-16.2l9.5-9.5
		c11.6-11.6,13.6-22.8,7.7-30c-0.4-0.5-0.8-0.2-0.6,0.4c3.9,8.8-5.4,18.2-9.9,22.6L88,82.8c-6,6.1-11.1,11.3-11.1,17V108.7
		L76.9,108.7z M88,76.9c-6,6-8.9,8.8-10.4,16.1c-0.1,0.5-0.7,0.5-0.7,0v-8.9c0-5.7,5.1-10.9,11.1-17l4.9-4.9
		c6.8-6.8,8.5-14.7,3-19.4c-0.5-0.4-0.2-0.9,0.4-0.6c6.8,3.1,12.1,14.3,0.5,25.9L88,76.9L88,76.9z M144.4,116.3
		c0.5,0,0.8-0.3,0.8-0.7c0-0.4-0.2-0.6-0.8-0.6h-0.5v1.3H144.4L144.4,116.3z M143.2,114.4h1.2c1,0,1.5,0.4,1.5,1.2
		c0,0.6-0.4,0.9-0.7,1.1l1.1,1.9h-0.8l-1-1.6h-0.6v1.6h-0.7L143.2,114.4L143.2,114.4z M147.5,116.5c0-1.6-1.2-3-3-3s-3,1.2-3,3
		c0,1.6,1.2,3,3,3C146.1,119.5,147.5,118.2,147.5,116.5z M141,116.5c0-2,1.5-3.5,3.5-3.5c1.9,0,3.5,1.5,3.5,3.5c0,2-1.5,3.5-3.5,3.5
		C142.5,120,141,118.5,141,116.5z"/>
</g>
</svg>
